<svg xmlns="http://www.w3.org/2000/svg" width="100" height="100" viewBox="0 0 100 100">
  <g id="BusinessLine_icon" transform="translate(2197 -380)">
    <circle id="Ellipse_6" data-name="Ellipse 6" cx="50" cy="50" r="50" transform="translate(-2197 380)" fill="#1e78c1"/>
    <g id="Group_3067" data-name="Group 3067" transform="translate(-2174.682 406.905)">
      <g id="Group_3049" data-name="Group 3049" transform="translate(52.676 34.373)">
        <path id="Path_360" data-name="Path 360" d="M-1.151-1.8A3.848,3.848,0,0,1-4.995-5.646,3.849,3.849,0,0,1-1.151-9.491,3.849,3.849,0,0,1,2.693-5.646,3.848,3.848,0,0,1-1.151-1.8Zm0-7.177A3.336,3.336,0,0,0-4.483-5.646,3.336,3.336,0,0,0-1.151-2.314,3.336,3.336,0,0,0,2.181-5.646,3.336,3.336,0,0,0-1.151-8.979Z" transform="translate(4.995 9.491)" fill="#fff"/>
      </g>
      <g id="Group_3050" data-name="Group 3050" transform="translate(54.359 36.056)">
        <path id="Path_8135" data-name="Path 8135" d="M-.546-1.093A2.161,2.161,0,0,0,1.615-3.254,2.161,2.161,0,0,0-.546-5.416,2.161,2.161,0,0,0-2.708-3.254,2.161,2.161,0,0,0-.546-1.093" transform="translate(2.708 5.416)" fill="#fff"/>
      </g>
      <g id="Group_3051" data-name="Group 3051" transform="translate(34.043 0.123)">
        <path id="Path_8136" data-name="Path 8136" d="M-4.093-10.442l-.184-.37-.739-.061c-2.154-.184-2.585-.37-2.585-.862V-51.749l-12.62,3.078-.061.246,1.354.37c2.155.554,2.524,1.046,2.524,4.74v31.457c0,.739-.307.862-2.216.985l-.8.061-.246.37Z" transform="translate(20.283 51.749)" fill="#fff"/>
      </g>
      <g id="Group_3052" data-name="Group 3052">
        <path id="Path_8137" data-name="Path 8137" d="M-4.778-10.536c-2.031,0-4.494-2.4-6.28-5.54v-15.39c1.416-1.046,2.648-2.093,4.8-2.093,4.186,0,6.71,4.617,6.71,11.019,0,6.587-1.846,12-5.232,12m-14.59,1.108,4.986-2.4h.061A24.283,24.283,0,0,0-5.393-9.92C1.439-9.92,9.935-14.6,9.935-24.756c0-7.572-4.924-13.236-11.081-13.236-3.878,0-7.449,2.709-9.665,5.726l-.247-.185v-19.76l-12.558,3.078-.061.246,1.416.37c2.154.554,2.524,1.046,2.524,4.741v34.35Z" transform="translate(23.677 52.212)" fill="#fff"/>
      </g>
    </g>
  </g>
</svg>
