<svg xmlns="http://www.w3.org/2000/svg" xmlns:xlink="http://www.w3.org/1999/xlink" width="100" height="100" viewBox="0 0 100 100">
  <defs>
    <clipPath id="clip-path">
      <circle id="Ellipse_5" data-name="Ellipse 5" cx="50" cy="50" r="50" fill="#fff"/>
    </clipPath>
  </defs>
  <g id="BusinessLine_epaper" data-name="BusinessLine epaper" transform="translate(1688 -2417.88)">
    <circle id="Ellipse_4" data-name="Ellipse 4" cx="50" cy="50" r="50" transform="translate(-1688 2417.88)" fill="#fff"/>
    <g id="Mask_Group_7" data-name="Mask Group 7" transform="translate(-1688 2417.88)" clip-path="url(#clip-path)">
      <g id="Group_3065" data-name="Group 3065" transform="translate(0.97 14.013)">
        <g id="Group_3064" data-name="Group 3064" transform="translate(18.43)">
          <g id="Group_3060" data-name="Group 3060" transform="translate(53.302 34.781)">
            <path id="Path_360" data-name="Path 360" d="M-1.105-1.711A3.894,3.894,0,0,1-4.995-5.6a3.9,3.9,0,0,1,3.89-3.891A3.9,3.9,0,0,1,2.784-5.6,3.894,3.894,0,0,1-1.105-1.711Zm0-7.262A3.376,3.376,0,0,0-4.477-5.6,3.375,3.375,0,0,0-1.105-2.229,3.375,3.375,0,0,0,2.266-5.6,3.376,3.376,0,0,0-1.105-8.973Z" transform="translate(4.995 9.491)" fill="#2b2e34"/>
          </g>
          <g id="Group_3061" data-name="Group 3061" transform="translate(55.004 36.484)">
            <path id="Path_8140" data-name="Path 8140" d="M-.521-1.042A2.187,2.187,0,0,0,1.666-3.229,2.187,2.187,0,0,0-.521-5.416,2.187,2.187,0,0,0-2.708-3.229,2.187,2.187,0,0,0-.521-1.042" transform="translate(2.708 5.416)" fill="#2b2e34"/>
          </g>
          <g id="Group_3062" data-name="Group 3062" transform="translate(34.447 0.125)">
            <path id="Path_8141" data-name="Path 8141" d="M-3.9-9.952l-.187-.374-.748-.062c-2.18-.187-2.616-.374-2.616-.872V-51.749l-12.77,3.114-.062.249,1.37.374c2.181.561,2.554,1.059,2.554,4.8v31.831c0,.748-.311.872-2.242,1l-.81.062-.249.374Z" transform="translate(20.283 51.749)" fill="#1e78c1"/>
          </g>
          <g id="Group_3063" data-name="Group 3063" transform="translate(0)">
            <path id="Path_8142" data-name="Path 8142" d="M-4.553-10.041c-2.056,0-4.547-2.43-6.354-5.606V-31.22c1.433-1.059,2.679-2.118,4.859-2.118,4.236,0,6.789,4.672,6.789,11.15,0,6.665-1.868,12.147-5.294,12.147M-19.316-8.92l5.046-2.43h.062A24.571,24.571,0,0,0-5.176-9.418c6.914,0,15.51-4.734,15.51-15.012,0-7.662-4.983-13.393-11.212-13.393-3.925,0-7.537,2.741-9.779,5.794l-.25-.187v-20L-23.615-49.1l-.062.249,1.433.374c2.18.561,2.554,1.059,2.554,4.8V-8.92Z" transform="translate(23.677 52.212)" fill="#2b2e34"/>
          </g>
        </g>
        <rect id="Rectangle_22" data-name="Rectangle 22" width="98" height="38" transform="translate(0.029 48.987)" fill="#1e78c1"/>
        <path id="Path_8143" data-name="Path 8143" d="M58.967,2.347A4.426,4.426,0,0,1,55.738,1.13a4.325,4.325,0,0,1-1.246-3.242v-.233a5.447,5.447,0,0,1,.525-2.429A3.853,3.853,0,0,1,56.5-6.424,4.175,4.175,0,0,1,58.7-7a3.742,3.742,0,0,1,2.912,1.167,4.741,4.741,0,0,1,1.063,3.308v.983H56.934a2.237,2.237,0,0,0,.7,1.417,2.129,2.129,0,0,0,1.487.533A2.6,2.6,0,0,0,61.3-.6L62.484.722a3.615,3.615,0,0,1-1.467,1.2A4.812,4.812,0,0,1,58.967,2.347Zm-.275-7.408a1.5,1.5,0,0,0-1.163.485,2.514,2.514,0,0,0-.571,1.39h3.35v-.193a1.793,1.793,0,0,0-.433-1.243A1.553,1.553,0,0,0,58.692-5.061ZM68.05-2.095V2.18h-2.5V-9.953h4.733a5.476,5.476,0,0,1,2.4.5,3.685,3.685,0,0,1,1.6,1.421,3.962,3.962,0,0,1,.558,2.1,3.484,3.484,0,0,1-1.221,2.812,5.085,5.085,0,0,1-3.379,1.029Zm0-2.025h2.233A2.2,2.2,0,0,0,71.8-4.586a1.7,1.7,0,0,0,.521-1.333,2,2,0,0,0-.525-1.442,1.961,1.961,0,0,0-1.45-.567H68.05Zm13.483,6.3a2.675,2.675,0,0,1-.242-.808,2.914,2.914,0,0,1-2.275.975,3.2,3.2,0,0,1-2.2-.767A2.466,2.466,0,0,1,75.95-.353a2.548,2.548,0,0,1,1.062-2.2,5.243,5.243,0,0,1,3.071-.775h1.108v-.517a1.486,1.486,0,0,0-.321-1,1.262,1.262,0,0,0-1.013-.375,1.435,1.435,0,0,0-.954.292.991.991,0,0,0-.346.8H76.15a2.419,2.419,0,0,1,.483-1.45A3.2,3.2,0,0,1,78-6.624,4.981,4.981,0,0,1,79.983-7a3.935,3.935,0,0,1,2.646.837,2.93,2.93,0,0,1,.979,2.354V.1a4.311,4.311,0,0,0,.358,1.942V2.18ZM79.542.505a2.074,2.074,0,0,0,.983-.238,1.56,1.56,0,0,0,.667-.637V-1.92h-.9q-1.808,0-1.925,1.25l-.008.142a.964.964,0,0,0,.317.742A1.23,1.23,0,0,0,79.542.505Zm14.033-2.75a5.408,5.408,0,0,1-.946,3.337,3.033,3.033,0,0,1-2.554,1.254,2.809,2.809,0,0,1-2.208-.95v4.25H85.458V-6.836h2.233l.083.883A2.831,2.831,0,0,1,90.058-7,3.053,3.053,0,0,1,92.65-5.77a5.554,5.554,0,0,1,.925,3.4ZM91.167-2.42a3.549,3.549,0,0,0-.446-1.942,1.452,1.452,0,0,0-1.3-.683,1.577,1.577,0,0,0-1.558.867V-.486a1.6,1.6,0,0,0,1.575.892Q91.167.405,91.167-2.42Zm8.05,4.767A4.426,4.426,0,0,1,95.987,1.13a4.325,4.325,0,0,1-1.246-3.242v-.233a5.447,5.447,0,0,1,.525-2.429,3.853,3.853,0,0,1,1.487-1.65A4.175,4.175,0,0,1,98.95-7a3.742,3.742,0,0,1,2.912,1.167,4.741,4.741,0,0,1,1.062,3.308v.983H97.183a2.237,2.237,0,0,0,.7,1.417,2.129,2.129,0,0,0,1.488.533A2.6,2.6,0,0,0,101.55-.6L102.733.722a3.615,3.615,0,0,1-1.467,1.2A4.812,4.812,0,0,1,99.216,2.347Zm-.275-7.408a1.5,1.5,0,0,0-1.163.485,2.514,2.514,0,0,0-.571,1.39h3.35v-.193a1.793,1.793,0,0,0-.433-1.243A1.553,1.553,0,0,0,98.941-5.061Zm10.417.483a6.543,6.543,0,0,0-.867-.067,1.764,1.764,0,0,0-1.792.925v5.9h-2.408V-6.836h2.275l.067,1.075A2.231,2.231,0,0,1,108.641-7a2.523,2.523,0,0,1,.75.108Z" transform="translate(-32.971 63.416)" fill="#fff"/>
      </g>
    </g>
    <g id="Ellipse_77" data-name="Ellipse 77" transform="translate(-1688 2417.88)" fill="none" stroke="#1e78c1" stroke-width="3">
      <circle cx="50" cy="50" r="50" stroke="none"/>
      <circle cx="50" cy="50" r="48.5" fill="none"/>
    </g>
  </g>
</svg>
