<svg xmlns="http://www.w3.org/2000/svg" xmlns:xlink="http://www.w3.org/1999/xlink" width="100" height="100" viewBox="0 0 100 100">
  <defs>
    <clipPath id="clip-path">
      <circle id="Ellipse_5" data-name="Ellipse 5" cx="50" cy="50" r="50" fill="#b7080d"/>
    </clipPath>
  </defs>
  <g id="Frontline" transform="translate(-127 -6949)">
    <g id="Group_12940" data-name="Group 12940" transform="translate(1815 4531.12)">
      <circle id="Ellipse_4" data-name="Ellipse 4" cx="50" cy="50" r="50" transform="translate(-1688 2417.88)" fill="#b7080d"/>
      <g id="Mask_Group_7" data-name="Mask Group 7" transform="translate(-1688 2417.88)" clip-path="url(#clip-path)">
        <g id="Group_3065" data-name="Group 3065" transform="translate(0.97 14.013)">
          <path id="Path_8143" data-name="Path 8143" d="M58.967,2.347A4.426,4.426,0,0,1,55.738,1.13a4.325,4.325,0,0,1-1.246-3.242v-.233a5.447,5.447,0,0,1,.525-2.429A3.853,3.853,0,0,1,56.5-6.424,4.175,4.175,0,0,1,58.7-7a3.742,3.742,0,0,1,2.912,1.167,4.741,4.741,0,0,1,1.063,3.308v.983H56.934a2.237,2.237,0,0,0,.7,1.417,2.129,2.129,0,0,0,1.487.533A2.6,2.6,0,0,0,61.3-.6L62.484.722a3.615,3.615,0,0,1-1.467,1.2A4.812,4.812,0,0,1,58.967,2.347Zm-.275-7.408a1.5,1.5,0,0,0-1.163.485,2.514,2.514,0,0,0-.571,1.39h3.35v-.193a1.793,1.793,0,0,0-.433-1.243A1.553,1.553,0,0,0,58.692-5.061ZM68.05-2.095V2.18h-2.5V-9.953h4.733a5.476,5.476,0,0,1,2.4.5,3.685,3.685,0,0,1,1.6,1.421,3.962,3.962,0,0,1,.558,2.1,3.484,3.484,0,0,1-1.221,2.812,5.085,5.085,0,0,1-3.379,1.029Zm0-2.025h2.233A2.2,2.2,0,0,0,71.8-4.586a1.7,1.7,0,0,0,.521-1.333,2,2,0,0,0-.525-1.442,1.961,1.961,0,0,0-1.45-.567H68.05Zm13.483,6.3a2.675,2.675,0,0,1-.242-.808,2.914,2.914,0,0,1-2.275.975,3.2,3.2,0,0,1-2.2-.767A2.466,2.466,0,0,1,75.95-.353a2.548,2.548,0,0,1,1.062-2.2,5.243,5.243,0,0,1,3.071-.775h1.108v-.517a1.486,1.486,0,0,0-.321-1,1.262,1.262,0,0,0-1.013-.375,1.435,1.435,0,0,0-.954.292.991.991,0,0,0-.346.8H76.15a2.419,2.419,0,0,1,.483-1.45A3.2,3.2,0,0,1,78-6.624,4.981,4.981,0,0,1,79.983-7a3.935,3.935,0,0,1,2.646.837,2.93,2.93,0,0,1,.979,2.354V.1a4.311,4.311,0,0,0,.358,1.942V2.18ZM79.542.505a2.074,2.074,0,0,0,.983-.238,1.56,1.56,0,0,0,.667-.637V-1.92h-.9q-1.808,0-1.925,1.25l-.008.142a.964.964,0,0,0,.317.742A1.23,1.23,0,0,0,79.542.505Zm14.033-2.75a5.408,5.408,0,0,1-.946,3.337,3.033,3.033,0,0,1-2.554,1.254,2.809,2.809,0,0,1-2.208-.95v4.25H85.458V-6.836h2.233l.083.883A2.831,2.831,0,0,1,90.058-7,3.053,3.053,0,0,1,92.65-5.77a5.554,5.554,0,0,1,.925,3.4ZM91.167-2.42a3.549,3.549,0,0,0-.446-1.942,1.452,1.452,0,0,0-1.3-.683,1.577,1.577,0,0,0-1.558.867V-.486a1.6,1.6,0,0,0,1.575.892Q91.167.405,91.167-2.42Zm8.05,4.767A4.426,4.426,0,0,1,95.987,1.13a4.325,4.325,0,0,1-1.246-3.242v-.233a5.447,5.447,0,0,1,.525-2.429,3.853,3.853,0,0,1,1.487-1.65A4.175,4.175,0,0,1,98.95-7a3.742,3.742,0,0,1,2.912,1.167,4.741,4.741,0,0,1,1.062,3.308v.983H97.183a2.237,2.237,0,0,0,.7,1.417,2.129,2.129,0,0,0,1.488.533A2.6,2.6,0,0,0,101.55-.6L102.733.722a3.615,3.615,0,0,1-1.467,1.2A4.812,4.812,0,0,1,99.216,2.347Zm-.275-7.408a1.5,1.5,0,0,0-1.163.485,2.514,2.514,0,0,0-.571,1.39h3.35v-.193a1.793,1.793,0,0,0-.433-1.243A1.553,1.553,0,0,0,98.941-5.061Zm10.417.483a6.543,6.543,0,0,0-.867-.067,1.764,1.764,0,0,0-1.792.925v5.9h-2.408V-6.836h2.275l.067,1.075A2.231,2.231,0,0,1,108.641-7a2.523,2.523,0,0,1,.75.108Z" transform="translate(-32.971 63.416)" fill="#b7080d"/>
        </g>
      </g>
    </g>
    <g id="Group_5156" data-name="Group 5156" transform="translate(125.09 6961.974)">
      <g id="Group_5146" data-name="Group 5146" transform="translate(30 10.96)">
        <g id="Group_1214" data-name="Group 1214" transform="translate(2.441 0)">
          <path id="Path_249" data-name="Path 249" d="M-40.516-46.47c5.255,0,5.865.533,7.235,2.818a32.521,32.521,0,0,1,2.437,7.007h1.218V-58.2h-1.218a29.109,29.109,0,0,1-2.437,6.931c-1.142,1.828-1.9,2.513-7.159,2.513h-2.209V-70.842a23.552,23.552,0,0,1,6.169-.533c5.255,0,6.55,1.447,8.835,5.332a105.176,105.176,0,0,1,4.57,9.52H-21.7l-.762-17.288H-64.354v1.219l2.133.533c2.818.762,3.351.914,3.351,6.017V-28.8c0,5.1-.533,5.255-3.351,6.017l-2.133.533v1.219h28.1v-1.219l-2.97-.609c-3.123-.685-3.427-.838-3.427-5.941V-46.47Z" transform="translate(64.354 73.812)" fill="#fff"/>
        </g>
        <g id="Group_1215" data-name="Group 1215" transform="translate(0 6.704)">
          <path id="Path_250" data-name="Path 250" d="M-3.8-64.733c0-.434.042-.482.223-.59a2.353,2.353,0,0,1,.542-.181v-.1H-4.716v.1a2.3,2.3,0,0,1,.536.181c.151.09.2.157.2.585v.193H-5.734a2.059,2.059,0,0,1-.042-.512.643.643,0,0,1,.41-.717,8.1,8.1,0,0,1,.741-.356v-.1l-1.338.06v3.26h.09l.042-.181c.06-.217.072-.253.458-.253h2.995c.386,0,.4.036.458.253l.042.181h.09v-2.139h-.09l-.048.241c-.048.241-.066.265-.452.265H-3.8Zm-.036-4.242a1.27,1.27,0,0,1-.024.253H-5.74a1.743,1.743,0,0,1-.03-.35c0-.44.3-.585.982-.585.747,0,.952.235.952.681m2.049,1.892v-2.048h-.09l-.042.174c-.054.211-.078.235-.458.235H-3.667c.006-.09.006-.169.006-.223a10.061,10.061,0,0,0,1.874-.928V-71.4h-.09l-.03.109a.436.436,0,0,1-.2.259,12.626,12.626,0,0,1-1.76.964h-.018a.954.954,0,0,0-1.006-.783c-.729,0-1.073.506-1.073,1.669v2.1h.09l.042-.181c.06-.217.072-.253.458-.253h2.995c.386,0,.4.036.458.253l.042.181Zm.072-6.971A2.024,2.024,0,0,0-3.92-76.139a1.919,1.919,0,0,0-2.115,2.048,2.033,2.033,0,0,0,2.211,2.085,1.951,1.951,0,0,0,2.109-2.049m-.169-.018c0,.566-.482.826-2.073.826-1.458,0-1.91-.283-1.91-.82,0-.566.494-.825,2.079-.825,1.458,0,1.9.259,1.9.819m.1-6.128v-.343H-5.252c-.44,0-.518-.036-.573-.253l-.048-.181h-.09v1.163h.09l.054-.217c.066-.271.133-.289.6-.289h1.573v.018L-5.963-78.64v1.615h.09l.042-.175c.054-.211.145-.259.458-.259H-2.5c.446,0,.512.042.572.253l.048.181h.09v-1.151h-.09l-.048.2c-.066.271-.139.3-.6.3H-5.306V-77.7Zm-4-4.441c0-.313.079-.374.319-.524a7.076,7.076,0,0,1,.988-.47v-.109l-1.488.054V-82.1l1.488.048v-.1a8.73,8.73,0,0,1-.988-.476.513.513,0,0,1-.319-.518V-83.3h3.4c.38,0,.4.036.458.3l.042.193h.09v-2.175h-.09l-.042.193c-.066.265-.078.3-.458.3h-3.4Zm4-2.175v-3.326l-1.585-.108v.108a7.569,7.569,0,0,1,1.024.464c.326.187.38.271.38.753,0,.44-.072.476-.4.476H-5.372c-.386,0-.41-.024-.458-.259l-.042-.2h-.09v2.1h.09L-5.83-87c.06-.217.072-.253.458-.253h2.995c.386,0,.4.036.458.253l.042.181Zm0-4.363v-2.1h-.09l-.042.193c-.054.229-.072.259-.458.259H-5.372c-.386,0-.4-.03-.458-.259l-.042-.193h-.09v2.1h.09l.042-.193c.054-.223.072-.259.458-.259h2.995c.386,0,.4.036.458.259l.042.193Zm.006-6.321v-.343H-5.252c-.44,0-.518-.036-.573-.253l-.048-.181h-.09v1.163h.09l.054-.217c.066-.271.133-.289.6-.289h1.573v.018l-2.314,1.663v1.615h.09l.042-.175c.054-.211.145-.259.458-.259H-2.5c.446,0,.512.042.572.253l.048.181h.09v-1.151h-.09l-.048.2c-.066.271-.139.3-.6.3H-5.306V-95Zm-2.97-4.519v.1a2.443,2.443,0,0,1,.524.187c.139.072.187.139.187.566v.211H-5.734a2.139,2.139,0,0,1-.042-.506c0-.4.06-.555.349-.729a4.99,4.99,0,0,1,.747-.373v-.1l-1.284.054v3.29h.09l.042-.181c.06-.217.072-.253.458-.253h2.995c.386,0,.4.036.458.253l.042.181h.09v-3.411L-3.3-102.82v.108a5.416,5.416,0,0,1,.946.452c.3.193.38.277.38.765,0,.506-.066.536-.428.536H-3.86v-.2c0-.428.042-.5.187-.572a2.79,2.79,0,0,1,.548-.187v-.1Z" transform="translate(6.035 102.82)" fill="#fff"/>
        </g>
      </g>
    </g>
  </g>
</svg>
