<svg xmlns="http://www.w3.org/2000/svg" xmlns:xlink="http://www.w3.org/1999/xlink" width="100" height="100" viewBox="0 0 100 100">
  <defs>
    <clipPath id="clip-path">
      <circle id="Ellipse_5" data-name="Ellipse 5" cx="50" cy="50" r="50" fill="#d10a10"/>
    </clipPath>
    <clipPath id="clip-path-2">
      <path id="Path_668" data-name="Path 668" d="M0-18.171H32.871v-64.1H0Z" transform="translate(0 82.268)" fill="#fff"/>
    </clipPath>
  </defs>
  <g id="Sportstar" transform="translate(-127 -6949.001)">
    <g id="Group_12940" data-name="Group 12940" transform="translate(1815 4531.121)">
      <circle id="Ellipse_4" data-name="Ellipse 4" cx="50" cy="50" r="50" transform="translate(-1688 2417.88)" fill="#d10a10"/>
      <g id="Mask_Group_7" data-name="Mask Group 7" transform="translate(-1688 2417.88)" clip-path="url(#clip-path)">
        <g id="Group_3065" data-name="Group 3065" transform="translate(0.97 14.013)">
          <path id="Path_8143" data-name="Path 8143" d="M58.967,2.347A4.426,4.426,0,0,1,55.738,1.13a4.325,4.325,0,0,1-1.246-3.242v-.233a5.447,5.447,0,0,1,.525-2.429A3.853,3.853,0,0,1,56.5-6.424,4.175,4.175,0,0,1,58.7-7a3.742,3.742,0,0,1,2.912,1.167,4.741,4.741,0,0,1,1.063,3.308v.983H56.934a2.237,2.237,0,0,0,.7,1.417,2.129,2.129,0,0,0,1.487.533A2.6,2.6,0,0,0,61.3-.6L62.484.722a3.615,3.615,0,0,1-1.467,1.2A4.812,4.812,0,0,1,58.967,2.347Zm-.275-7.408a1.5,1.5,0,0,0-1.163.485,2.514,2.514,0,0,0-.571,1.39h3.35v-.193a1.793,1.793,0,0,0-.433-1.243A1.553,1.553,0,0,0,58.692-5.061ZM68.05-2.095V2.18h-2.5V-9.953h4.733a5.476,5.476,0,0,1,2.4.5,3.685,3.685,0,0,1,1.6,1.421,3.962,3.962,0,0,1,.558,2.1,3.484,3.484,0,0,1-1.221,2.812,5.085,5.085,0,0,1-3.379,1.029Zm0-2.025h2.233A2.2,2.2,0,0,0,71.8-4.586a1.7,1.7,0,0,0,.521-1.333,2,2,0,0,0-.525-1.442,1.961,1.961,0,0,0-1.45-.567H68.05Zm13.483,6.3a2.675,2.675,0,0,1-.242-.808,2.914,2.914,0,0,1-2.275.975,3.2,3.2,0,0,1-2.2-.767A2.466,2.466,0,0,1,75.95-.353a2.548,2.548,0,0,1,1.062-2.2,5.243,5.243,0,0,1,3.071-.775h1.108v-.517a1.486,1.486,0,0,0-.321-1,1.262,1.262,0,0,0-1.013-.375,1.435,1.435,0,0,0-.954.292.991.991,0,0,0-.346.8H76.15a2.419,2.419,0,0,1,.483-1.45A3.2,3.2,0,0,1,78-6.624,4.981,4.981,0,0,1,79.983-7a3.935,3.935,0,0,1,2.646.837,2.93,2.93,0,0,1,.979,2.354V.1a4.311,4.311,0,0,0,.358,1.942V2.18ZM79.542.505a2.074,2.074,0,0,0,.983-.238,1.56,1.56,0,0,0,.667-.637V-1.92h-.9q-1.808,0-1.925,1.25l-.008.142a.964.964,0,0,0,.317.742A1.23,1.23,0,0,0,79.542.505Zm14.033-2.75a5.408,5.408,0,0,1-.946,3.337,3.033,3.033,0,0,1-2.554,1.254,2.809,2.809,0,0,1-2.208-.95v4.25H85.458V-6.836h2.233l.083.883A2.831,2.831,0,0,1,90.058-7,3.053,3.053,0,0,1,92.65-5.77a5.554,5.554,0,0,1,.925,3.4ZM91.167-2.42a3.549,3.549,0,0,0-.446-1.942,1.452,1.452,0,0,0-1.3-.683,1.577,1.577,0,0,0-1.558.867V-.486a1.6,1.6,0,0,0,1.575.892Q91.167.405,91.167-2.42Zm8.05,4.767A4.426,4.426,0,0,1,95.987,1.13a4.325,4.325,0,0,1-1.246-3.242v-.233a5.447,5.447,0,0,1,.525-2.429,3.853,3.853,0,0,1,1.487-1.65A4.175,4.175,0,0,1,98.95-7a3.742,3.742,0,0,1,2.912,1.167,4.741,4.741,0,0,1,1.062,3.308v.983H97.183a2.237,2.237,0,0,0,.7,1.417,2.129,2.129,0,0,0,1.488.533A2.6,2.6,0,0,0,101.55-.6L102.733.722a3.615,3.615,0,0,1-1.467,1.2A4.812,4.812,0,0,1,99.216,2.347Zm-.275-7.408a1.5,1.5,0,0,0-1.163.485,2.514,2.514,0,0,0-.571,1.39h3.35v-.193a1.793,1.793,0,0,0-.433-1.243A1.553,1.553,0,0,0,98.941-5.061Zm10.417.483a6.543,6.543,0,0,0-.867-.067,1.764,1.764,0,0,0-1.792.925v5.9h-2.408V-6.836h2.275l.067,1.075A2.231,2.231,0,0,1,108.641-7a2.523,2.523,0,0,1,.75.108Z" transform="translate(-32.971 63.416)" fill="#d10a10"/>
        </g>
      </g>
    </g>
    <g id="Group_12942" data-name="Group 12942" transform="translate(-252.57 -159.117)">
      <g id="Group_4769" data-name="Group 4769" transform="translate(419.717 7146.222) rotate(90)">
        <g id="Group_4718" data-name="Group 4718" transform="translate(0 7.698)">
          <path id="Path_4" data-name="Path 4" d="M23.79,13.468,11.9,8.22,0,13.468V5.246L11.9,0,23.79,5.246Z" transform="translate(0 0)" fill="#fff"/>
        </g>
        <g id="Group_4719" data-name="Group 4719" transform="translate(0.001 0)">
          <path id="Path_5" data-name="Path 5" d="M11.895,4.723,0,9.971V5.248L11.895,0,23.788,5.248V9.971Z" transform="translate(0 0)" fill="#fff"/>
        </g>
      </g>
      <g id="Group_5054" data-name="Group 5054" transform="translate(419.717 7126.069)" clip-path="url(#clip-path-2)">
        <g id="Group_5053" data-name="Group 5053" transform="translate(0 0)">
          <path id="Path_667" data-name="Path 667" d="M0-12.688C.607-.285,6.5,6.567,16.479,6.653,26.02,6.741,32.871.5,32.871-9.825c0-6.332-2.6-12.577-8.933-18.214l-5.29-4.77c-3.556-3.209-5.378-5.377-5.378-8.673,0-3.035,1.3-4.771,3.469-4.771,2.775,0,3.816,2.862,4.337,7.286L32.351-39.4c-.867-11.882-6.245-17.953-15.438-18.04S1.041-51.2.954-40.615c0,5.638,1.821,11.709,7.979,17.173l5.29,4.771c3.817,3.3,5.812,6.158,5.812,9.54,0,3.035-1.475,4.683-3.73,4.683-3.035,0-4.51-3.122-5.2-8.76Z" transform="translate(0 57.442)" fill="#fff"/>
        </g>
      </g>
    </g>
  </g>
</svg>
