<svg xmlns="http://www.w3.org/2000/svg" width="100" height="100" viewBox="0 0 100 100">
  <g id="The_Hindu" data-name="The Hindu" transform="translate(-62.429 -64.337)">
    <circle id="Ellipse_75" data-name="Ellipse 75" cx="50" cy="50" r="50" transform="translate(62.429 64.337)"/>
    <g id="Group_3191" data-name="Group 3191" transform="translate(77.933 96.321)">
      <g id="Group_3190" data-name="Group 3190" transform="translate(0 0)">
        <path id="Path_1171" data-name="Path 1171" d="M136.926,408.576c-1.076-5.379-2.779-9.458-9.638-9.458h-1.3c-.09,3.183-.134,7.217-.134,10.041v17.975c0,3.766,1.569,4.707,5.872,5.021v.583s-7.038-.135-8.876-.135c-1.972,0-8.965.135-8.965.135v-.583c4.393-.314,5.782-1.255,5.782-5.021V409.159c0-2.824-.045-6.365-.134-10.041h-1.076c-7.62,0-8.651,3.72-9.862,9.458h-.448c0-1.39.045-5.11.045-6.858,0-1.39-.045-2.779-.045-3.989,2.2.224,4.259.269,5.424.269,1.479,0,4.707.09,6.634.09h5.245c1.838,0,5.155-.09,6.589-.09,1.076,0,3.093-.045,5.424-.269-.09,1.21-.09,2.6-.09,3.989,0,1.748,0,5.469.09,6.858Z" transform="translate(-108.147 -397.728)" fill="#fff"/>
        <path id="Path_1172" data-name="Path 1172" d="M497.514,435.5q-4.169-.134-8.338-.135c-2.69,0-5.469.045-8.158.135v-.583c3.81-.269,5.065-.762,5.065-5.021V418.472c-2.69-.09-5.334-.09-8.024-.09-2.51,0-5.021.09-7.62.09v11.421c0,4.259,1.434,4.752,5.155,5.021v.583c-2.779-.09-5.514-.135-8.248-.135-2.779,0-5.469.045-8.248.135v-.583c3.765-.269,5.11-.762,5.11-5.021V406.449c0-4.348-1.3-4.841-5.11-5.021v-.672c2.779.09,5.469.179,8.248.179,2.734,0,5.469-.089,8.248-.179v.672c-3.81.179-5.155.762-5.155,5.021l0,9.811h6.724c2.958,0,5.917-.045,8.92-.045l0-9.766c0-4.348-1.255-4.841-5.065-5.021v-.672c2.689.09,5.469.179,8.158.179,2.779,0,5.559-.089,8.338-.179v.672c-3.765.179-5.155.762-5.155,5.021v23.444c0,4.259,1.479,4.752,5.155,5.021Z" transform="translate(-427.943 -400.487)" fill="#fff"/>
      </g>
    </g>
  </g>
</svg>
