<svg xmlns="http://www.w3.org/2000/svg" xmlns:xlink="http://www.w3.org/1999/xlink" width="100" height="100" viewBox="0 0 100 100">
  <defs>
    <clipPath id="clip-path">
      <circle id="Ellipse_5" data-name="Ellipse 5" cx="50" cy="50" r="50" fill="#fff"/>
    </clipPath>
  </defs>
  <g id="The_Hindu_epaper" data-name="The Hindu epaper" transform="translate(1688 -2417.88)">
    <g id="Ellipse_4" data-name="Ellipse 4" transform="translate(-1688 2417.88)" fill="#fff" stroke="#000" stroke-width="3">
      <circle cx="50" cy="50" r="50" stroke="none"/>
      <circle cx="50" cy="50" r="48.5" fill="none"/>
    </g>
    <g id="Mask_Group_7" data-name="Mask Group 7" transform="translate(-1688 2417.88)" clip-path="url(#clip-path)">
      <g id="Group_3065" data-name="Group 3065" transform="translate(0.97 14.013)">
        <rect id="Rectangle_22" data-name="Rectangle 22" width="98" height="38" transform="translate(0.029 48.987)"/>
        <path id="Path_8143" data-name="Path 8143" d="M58.967,2.347A4.426,4.426,0,0,1,55.738,1.13a4.325,4.325,0,0,1-1.246-3.242v-.233a5.447,5.447,0,0,1,.525-2.429A3.853,3.853,0,0,1,56.5-6.424,4.175,4.175,0,0,1,58.7-7a3.742,3.742,0,0,1,2.912,1.167,4.741,4.741,0,0,1,1.063,3.308v.983H56.934a2.237,2.237,0,0,0,.7,1.417,2.129,2.129,0,0,0,1.487.533A2.6,2.6,0,0,0,61.3-.6L62.484.722a3.615,3.615,0,0,1-1.467,1.2A4.812,4.812,0,0,1,58.967,2.347Zm-.275-7.408a1.5,1.5,0,0,0-1.163.485,2.514,2.514,0,0,0-.571,1.39h3.35v-.193a1.793,1.793,0,0,0-.433-1.243A1.553,1.553,0,0,0,58.692-5.061ZM68.05-2.095V2.18h-2.5V-9.953h4.733a5.476,5.476,0,0,1,2.4.5,3.685,3.685,0,0,1,1.6,1.421,3.962,3.962,0,0,1,.558,2.1,3.484,3.484,0,0,1-1.221,2.812,5.085,5.085,0,0,1-3.379,1.029Zm0-2.025h2.233A2.2,2.2,0,0,0,71.8-4.586a1.7,1.7,0,0,0,.521-1.333,2,2,0,0,0-.525-1.442,1.961,1.961,0,0,0-1.45-.567H68.05Zm13.483,6.3a2.675,2.675,0,0,1-.242-.808,2.914,2.914,0,0,1-2.275.975,3.2,3.2,0,0,1-2.2-.767A2.466,2.466,0,0,1,75.95-.353a2.548,2.548,0,0,1,1.062-2.2,5.243,5.243,0,0,1,3.071-.775h1.108v-.517a1.486,1.486,0,0,0-.321-1,1.262,1.262,0,0,0-1.013-.375,1.435,1.435,0,0,0-.954.292.991.991,0,0,0-.346.8H76.15a2.419,2.419,0,0,1,.483-1.45A3.2,3.2,0,0,1,78-6.624,4.981,4.981,0,0,1,79.983-7a3.935,3.935,0,0,1,2.646.837,2.93,2.93,0,0,1,.979,2.354V.1a4.311,4.311,0,0,0,.358,1.942V2.18ZM79.542.505a2.074,2.074,0,0,0,.983-.238,1.56,1.56,0,0,0,.667-.637V-1.92h-.9q-1.808,0-1.925,1.25l-.008.142a.964.964,0,0,0,.317.742A1.23,1.23,0,0,0,79.542.505Zm14.033-2.75a5.408,5.408,0,0,1-.946,3.337,3.033,3.033,0,0,1-2.554,1.254,2.809,2.809,0,0,1-2.208-.95v4.25H85.458V-6.836h2.233l.083.883A2.831,2.831,0,0,1,90.058-7,3.053,3.053,0,0,1,92.65-5.77a5.554,5.554,0,0,1,.925,3.4ZM91.167-2.42a3.549,3.549,0,0,0-.446-1.942,1.452,1.452,0,0,0-1.3-.683,1.577,1.577,0,0,0-1.558.867V-.486a1.6,1.6,0,0,0,1.575.892Q91.167.405,91.167-2.42Zm8.05,4.767A4.426,4.426,0,0,1,95.987,1.13a4.325,4.325,0,0,1-1.246-3.242v-.233a5.447,5.447,0,0,1,.525-2.429,3.853,3.853,0,0,1,1.487-1.65A4.175,4.175,0,0,1,98.95-7a3.742,3.742,0,0,1,2.912,1.167,4.741,4.741,0,0,1,1.062,3.308v.983H97.183a2.237,2.237,0,0,0,.7,1.417,2.129,2.129,0,0,0,1.488.533A2.6,2.6,0,0,0,101.55-.6L102.733.722a3.615,3.615,0,0,1-1.467,1.2A4.812,4.812,0,0,1,99.216,2.347Zm-.275-7.408a1.5,1.5,0,0,0-1.163.485,2.514,2.514,0,0,0-.571,1.39h3.35v-.193a1.793,1.793,0,0,0-.433-1.243A1.553,1.553,0,0,0,98.941-5.061Zm10.417.483a6.543,6.543,0,0,0-.867-.067,1.764,1.764,0,0,0-1.792.925v5.9h-2.408V-6.836h2.275l.067,1.075A2.231,2.231,0,0,1,108.641-7a2.523,2.523,0,0,1,.75.108Z" transform="translate(-32.971 63.416)" fill="#fff"/>
      </g>
      <g id="Group_12946" data-name="Group 12946" transform="translate(20 25.164)">
        <g id="Group_3190" data-name="Group 3190" transform="translate(0 0)">
          <path id="Path_1171" data-name="Path 1171" d="M132.673,406.973c-.917-4.584-2.369-8.061-8.213-8.061h-1.108c-.076,2.712-.114,6.15-.114,8.557v15.319c0,3.209,1.337,4.011,5,4.279v.5s-6-.115-7.564-.115c-1.681,0-7.64.115-7.64.115v-.5c3.744-.267,4.928-1.07,4.928-4.279V407.469c0-2.407-.038-5.425-.115-8.557h-.917c-6.494,0-7.373,3.171-8.4,8.061h-.382c0-1.184.038-4.355.038-5.845,0-1.184-.038-2.368-.038-3.4,1.872.191,3.629.229,4.622.229,1.261,0,4.011.077,5.654.077h4.47c1.566,0,4.393-.077,5.616-.077.917,0,2.636-.038,4.622-.229-.076,1.031-.076,2.216-.076,3.4,0,1.49,0,4.661.076,5.845Z" transform="translate(-108.147 -397.728)"/>
          <path id="Path_1172" data-name="Path 1172" d="M491.837,430.362q-3.553-.115-7.106-.115c-2.292,0-4.661.038-6.953.115v-.5c3.247-.229,4.317-.649,4.317-4.279v-9.733c-2.292-.076-4.546-.076-6.838-.076-2.139,0-4.279.076-6.494.076v9.733c0,3.629,1.222,4.049,4.393,4.279v.5c-2.369-.076-4.7-.115-7.029-.115-2.369,0-4.661.038-7.029.115v-.5c3.209-.229,4.355-.649,4.355-4.279v-19.98c0-3.706-1.108-4.126-4.355-4.279v-.573c2.368.077,4.661.153,7.029.153,2.33,0,4.66-.076,7.029-.153v.573c-3.247.153-4.393.649-4.393,4.279l0,8.361h5.73c2.521,0,5.042-.038,7.6-.038l0-8.323c0-3.706-1.07-4.126-4.317-4.279v-.573c2.292.077,4.661.153,6.953.153,2.369,0,4.737-.076,7.106-.153v.573c-3.209.153-4.393.649-4.393,4.279v19.98c0,3.629,1.261,4.049,4.393,4.279Z" transform="translate(-432.548 -400.527)"/>
        </g>
      </g>
    </g>
  </g>
</svg>
